<svg width="21" height="21" viewBox="0 0 21 21" fill="none" xmlns="http://www.w3.org/2000/svg">
<path fill-rule="evenodd" clip-rule="evenodd" d="M10.5 18.375C14.8492 18.375 18.375 14.8492 18.375 10.5C18.375 6.15076 14.8492 2.625 10.5 2.625C6.15076 2.625 2.625 6.15076 2.625 10.5C2.625 14.8492 6.15076 18.375 10.5 18.375ZM10.5 21C16.299 21 21 16.299 21 10.5C21 4.70101 16.299 0 10.5 0C4.70101 0 0 4.70101 0 10.5C0 16.299 4.70101 21 10.5 21Z" fill="white"/>
<path d="M3 1.5C3 2.32843 2.32843 3 1.5 3C0.671573 3 0 2.32843 0 1.5C0 0.671573 0.671573 0 1.5 0C2.32843 0 3 0.671573 3 1.5Z" transform="translate(9 12.8)" fill="white"/>
<path d="M0.0140781 1.8904L0.552814 6.46137C0.602458 6.88258 0.959466 7.19998 1.38359 7.19998C1.81303 7.19998 2.17272 6.8748 2.21588 6.44753L2.67699 1.88315C2.76869 0.975433 2.24898 0.00502048 1.33665 1.91711e-05C0.419576 -0.00500815 -0.093267 0.979615 0.0140781 1.8904Z" transform="translate(9.16783 3.80002)" fill="white"/>
</svg>
