<svg width="411" height="24" viewBox="0 0 411 24" fill="none" xmlns="http://www.w3.org/2000/svg">
<path fill-rule="evenodd" clip-rule="evenodd" d="M0 0V24H411V0H0Z" fill="#3B6359"/>
<mask id="mask0" mask-type="alpha" maskUnits="userSpaceOnUse" x="301" y="6" width="16" height="12">
<path fill-rule="evenodd" clip-rule="evenodd" d="M0 0L8 12L16 0H0Z" transform="translate(301 6)" fill="white"/>
</mask>
<g mask="url(#mask0)">
<path fill-rule="evenodd" clip-rule="evenodd" d="M12 0C5.4 0 0 5.4 0 12C0 18.6 5.4 24 12 24C18.6 24 24 18.6 24 12C24 5.4 18.6 0 12 0ZM12 21C7 21 3 17 3 12C3 7 7 3 12 3C17 3 21 7 21 12C21 17 17 21 12 21Z" transform="translate(297 6)" fill="white" fill-opacity="0.3"/>
<path fill-rule="evenodd" clip-rule="evenodd" d="M9 0C4 0 0 4 0 9C0 14 4 18 9 18C14 18 18 14 18 9C18 4 14 0 9 0ZM9 15C5.7 15 3 12.3 3 9C3 5.7 5.7 3 9 3C12.3 3 15 5.7 15 9C15 12.3 12.3 15 9 15Z" transform="translate(300 9)" fill="white" fill-opacity="0.9"/>
<path fill-rule="evenodd" clip-rule="evenodd" d="M6 0C2.7 0 0 2.7 0 6C0 9.3 2.7 12 6 12C9.3 12 12 9.3 12 6C12 2.7 9.3 0 6 0ZM6 9C4.3 9 3 7.7 3 6C3 4.3 4.3 3 6 3C7.7 3 9 4.3 9 6C9 7.7 7.7 9 6 9Z" transform="translate(303 12)" fill="white" fill-opacity="0.9"/>
<path fill-rule="evenodd" clip-rule="evenodd" d="M3 6C4.65685 6 6 4.65685 6 3C6 1.34315 4.65685 0 3 0C1.34315 0 0 1.34315 0 3C0 4.65685 1.34315 6 3 6Z" transform="translate(306 15)" fill="white" fill-opacity="0.9"/>
</g>
<mask id="mask1" mask-type="alpha" maskUnits="userSpaceOnUse" x="327" y="6" width="12" height="12">
<path fill-rule="evenodd" clip-rule="evenodd" d="M12 12V0L0 12H12Z" transform="translate(327 6)" fill="white"/>
</mask>
<g mask="url(#mask1)">
<path fill-rule="evenodd" clip-rule="evenodd" d="M0 0V12H3V0H0Z" transform="translate(336 6)" fill="white" fill-opacity="0.3"/>
<path fill-rule="evenodd" clip-rule="evenodd" d="M0 0V12H3V0H0Z" transform="translate(333 6)" fill="white" fill-opacity="0.3"/>
<path fill-rule="evenodd" clip-rule="evenodd" d="M0 0V12H3V0H0Z" transform="translate(330 6)" fill="white" fill-opacity="0.9"/>
<path fill-rule="evenodd" clip-rule="evenodd" d="M0 0V12H3V0H0Z" transform="translate(327 6)" fill="white" fill-opacity="0.9"/>
</g>
<mask id="mask2" mask-type="alpha" maskUnits="userSpaceOnUse" x="353" y="5" width="8" height="13">
<path fill-rule="evenodd" clip-rule="evenodd" d="M7 1H6V0H2V1H1C0.4 1 0 1.4 0 2V12C0 12.6 0.4 13 1 13H7C7.6 13 8 12.6 8 12V2C8 1.4 7.6 1 7 1Z" transform="translate(353 5)" fill="white"/>
</mask>
<g mask="url(#mask2)">
<path fill-rule="evenodd" clip-rule="evenodd" d="M0 0V3H8V0H0Z" transform="translate(353 15)" fill="white" fill-opacity="0.9"/>
<path fill-rule="evenodd" clip-rule="evenodd" d="M0 0V3H8V0H0Z" transform="translate(353 12)" fill="white" fill-opacity="0.9"/>
<path fill-rule="evenodd" clip-rule="evenodd" d="M0 0V3H8V0H0Z" transform="translate(353 9)" fill="white" fill-opacity="0.3"/>
<path fill-rule="evenodd" clip-rule="evenodd" d="M0 0V3H8V0H0Z" transform="translate(353 6)" fill="white" fill-opacity="0.3"/>
<path fill-rule="evenodd" clip-rule="evenodd" d="M0 0V1H4V0H0Z" transform="translate(355 5)" fill="white" fill-opacity="0.3"/>
</g>
<g opacity="0.9">
<path d="M4.62744 12.0605H3.44678V4.23389L1.0791 5.10352V4.03711L4.44336 2.77393H4.62744V12.0605ZM14.1235 12.0605H8.06787V11.2163L11.2671 7.66162C11.741 7.12419 12.0669 6.68831 12.2446 6.354C12.4266 6.01546 12.5176 5.66634 12.5176 5.30664C12.5176 4.82422 12.3716 4.42855 12.0796 4.11963C11.7876 3.81071 11.3983 3.65625 10.9116 3.65625C10.3276 3.65625 9.87272 3.82341 9.54688 4.15771C9.22526 4.48779 9.06445 4.94906 9.06445 5.5415H7.89014C7.89014 4.69092 8.16309 4.00326 8.70898 3.47852C9.25911 2.95378 9.99333 2.69141 10.9116 2.69141C11.7707 2.69141 12.4499 2.91781 12.9492 3.37061C13.4486 3.81917 13.6982 4.41797 13.6982 5.16699C13.6982 6.07682 13.1185 7.16016 11.959 8.41699L9.4834 11.1021H14.1235V12.0605ZM15.4502 11.4448C15.4502 11.2417 15.5094 11.0724 15.6279 10.937C15.7507 10.8016 15.9326 10.7339 16.1738 10.7339C16.415 10.7339 16.597 10.8016 16.7197 10.937C16.8467 11.0724 16.9102 11.2417 16.9102 11.4448C16.9102 11.6395 16.8467 11.8024 16.7197 11.9336C16.597 12.0648 16.415 12.1304 16.1738 12.1304C15.9326 12.1304 15.7507 12.0648 15.6279 11.9336C15.5094 11.8024 15.4502 11.6395 15.4502 11.4448ZM15.4565 5.83984C15.4565 5.63672 15.5158 5.46745 15.6343 5.33203C15.757 5.19661 15.939 5.12891 16.1802 5.12891C16.4214 5.12891 16.6034 5.19661 16.7261 5.33203C16.853 5.46745 16.9165 5.63672 16.9165 5.83984C16.9165 6.03451 16.853 6.19743 16.7261 6.32861C16.6034 6.4598 16.4214 6.52539 16.1802 6.52539C15.939 6.52539 15.757 6.4598 15.6343 6.32861C15.5158 6.19743 15.4565 6.03451 15.4565 5.83984ZM20.2236 6.86816H21.106C21.6603 6.8597 22.0962 6.7137 22.4136 6.43018C22.731 6.14665 22.8896 5.76367 22.8896 5.28125C22.8896 4.19792 22.3501 3.65625 21.271 3.65625C20.7632 3.65625 20.3569 3.80225 20.0522 4.09424C19.7518 4.382 19.6016 4.76497 19.6016 5.24316H18.4272C18.4272 4.51107 18.6938 3.90381 19.2271 3.42139C19.7645 2.93473 20.4458 2.69141 21.271 2.69141C22.1427 2.69141 22.8262 2.92204 23.3213 3.3833C23.8164 3.84456 24.064 4.48568 24.064 5.30664C24.064 5.70866 23.9328 6.09798 23.6704 6.47461C23.4123 6.85124 23.0589 7.13265 22.6104 7.31885C23.1182 7.47965 23.5096 7.74626 23.7847 8.11865C24.064 8.49105 24.2036 8.94596 24.2036 9.4834C24.2036 10.3128 23.9328 10.9709 23.3911 11.4575C22.8494 11.9442 22.1449 12.1875 21.2773 12.1875C20.4098 12.1875 19.7031 11.9526 19.1572 11.4829C18.6156 11.0132 18.3447 10.3932 18.3447 9.62305H19.5254C19.5254 10.1097 19.6841 10.499 20.0015 10.791C20.3188 11.083 20.7441 11.229 21.2773 11.229C21.8444 11.229 22.2782 11.0809 22.5786 10.7847C22.8791 10.4884 23.0293 10.0632 23.0293 9.50879C23.0293 8.97135 22.8643 8.55876 22.5342 8.271C22.2041 7.98324 21.728 7.83512 21.106 7.82666H20.2236V6.86816ZM31.6113 8.11865C31.6113 9.49398 31.3765 10.516 30.9067 11.1846C30.437 11.8532 29.7028 12.1875 28.7041 12.1875C27.7181 12.1875 26.9881 11.8617 26.5142 11.21C26.0402 10.554 25.7948 9.5765 25.7778 8.27734V6.70947C25.7778 5.35107 26.0127 4.3418 26.4824 3.68164C26.9521 3.02148 27.6885 2.69141 28.6914 2.69141C29.6859 2.69141 30.418 3.01091 30.8877 3.6499C31.3574 4.28467 31.5986 5.26644 31.6113 6.59521V8.11865ZM30.437 6.5127C30.437 5.51823 30.2974 4.7946 30.0181 4.3418C29.7388 3.88477 29.2965 3.65625 28.6914 3.65625C28.0905 3.65625 27.6525 3.88265 27.3774 4.33545C27.1024 4.78825 26.9606 5.48438 26.9521 6.42383V8.30273C26.9521 9.30143 27.096 10.0399 27.3838 10.5181C27.6758 10.992 28.1159 11.229 28.7041 11.229C29.2839 11.229 29.7134 11.0047 29.9927 10.5562C30.2762 10.1076 30.4243 9.40088 30.437 8.43604V6.5127Z" transform="translate(370 5)" fill="white"/>
</g>
</svg>
